<?xml version="1.0" encoding="iso-8859-1"?>
<!-- Generator: Adobe Illustrator 19.0.0, SVG Export Plug-In . SVG Version: 6.00 Build 0)  -->
<svg version="1.1" id="Capa_1" xmlns="http://www.w3.org/2000/svg" xmlns:xlink="http://www.w3.org/1999/xlink" x="0px"
	y="0px" viewBox="0 0 511.999 511.999" style="enable-background:new 0 0 511.999 511.999;" xml:space="preserve">
	<path style="fill:#fcd770;" d="M499.804,259.32l-11.336-11.337l-24.048-72.145h-72.145v168.339l104.209,0.004
	c4.427,0,8.016-3.589,8.016-8.016v-65.508C504.5,266.405,502.811,262.327,499.804,259.32z" />
	<path style="fill:#DCE6F2;" d="M488.468,247.984l-13.361-40.081h-50.768v40.081c0,4.427,3.589,8.016,8.016,8.016h64.129
	L488.468,247.984z" />
	<polygon style="fill:#DCE6F2;" points="475.107,207.904 424.339,207.904 424.339,231.952 483.123,231.952 " />
	<path style="fill:current;" d="M15.516,127.743h368.742c4.427,0,8.016,3.589,8.016,8.016v184.371H15.516
	c-4.427,0-8.016-3.589-8.016-8.016V135.758C7.5,131.331,11.089,127.743,15.516,127.743z" />
	<path style="fill:#DCE6F2;" d="M392.274,320.129H15.516c-4.427,0-8.016-3.589-8.016-8.016v-24.048h384.774V320.129z" />
	<path style="fill:#DCE6F2;" d="M424.339,352.194H39.565c-4.427,0-8.016-3.589-8.016-8.016V320.13h392.79L424.339,352.194
	L424.339,352.194z" />
	<g>
		<circle style="fill:#DCE6F2;" cx="424.34" cy="352.19" r="32.06" />
		<circle style="fill:#DCE6F2;" cx="159.81" cy="352.19" r="32.06" />
		<circle style="fill:#DCE6F2;" cx="95.68" cy="352.19" r="32.06" />
	</g>
	<path d="M95.758,344.691h-0.081c-4.142,0-7.459,3.358-7.459,7.5s3.398,7.5,7.54,7.5s7.5-3.358,7.5-7.5S99.9,344.691,95.758,344.691z
	" />
	<path d="M159.887,344.691h-0.08c-4.142,0-7.46,3.358-7.46,7.5s3.398,7.5,7.54,7.5s7.5-3.358,7.5-7.5
	S164.029,344.691,159.887,344.691z" />
	<path d="M424.419,344.691h-0.08c-4.142,0-7.46,3.358-7.46,7.5s3.398,7.5,7.54,7.5s7.5-3.358,7.5-7.5
	S428.561,344.691,424.419,344.691z" />
	<path d="M505.107,254.016l-10.084-10.084l-20.315-60.946c3.031-0.963,5.228-3.798,5.228-7.147c0-4.142-3.358-7.5-7.5-7.5h-72.661
	V135.76c0-8.556-6.96-15.516-15.516-15.516H15.516C6.96,120.245,0,127.206,0,135.76v176.354c0,8.556,6.96,15.516,15.516,15.516
	h8.532v16.544c0,8.556,6.96,15.516,15.516,15.516h17.271c3.516,18.24,19.591,32.064,38.842,32.064
	c13.182,0,24.871-6.486,32.064-16.428c7.194,9.942,18.883,16.428,32.065,16.428c19.251,0,35.327-13.824,38.842-32.064h186.848
	c3.516,18.24,19.591,32.064,38.842,32.064c21.816,0,39.564-17.749,39.564-39.564c0-0.172-0.011-0.341-0.013-0.512h32.594
	c8.556,0,15.516-6.96,15.516-15.516v-65.508C512,264.369,509.552,258.46,505.107,254.016z M56.835,344.691H39.564
	c-0.285,0-0.516-0.231-0.516-0.516v-16.544h25.645C60.813,332.517,58.06,338.333,56.835,344.691z M95.677,376.757
	c-13.545,0-24.564-11.02-24.564-24.564c0-13.493,10.937-24.477,24.411-24.561h0.308c13.474,0.083,24.411,11.067,24.411,24.561
	C120.242,365.736,109.222,376.757,95.677,376.757z M159.807,376.757c-13.545,0-24.565-11.02-24.565-24.564
	c0-13.493,10.937-24.477,24.411-24.561h0.308c13.474,0.083,24.411,11.067,24.411,24.561
	C184.371,365.736,173.352,376.757,159.807,376.757z M385.497,344.691H198.649c-1.225-6.358-3.978-12.175-7.859-17.061h145.371
	c4.142,0,7.5-3.358,7.5-7.5s-3.358-7.5-7.5-7.5H15.516c-0.285,0-0.516-0.231-0.516-0.516V135.76c0-0.285,0.231-0.516,0.516-0.516
	h368.742c0.285,0,0.516,0.231,0.516,0.516v176.871h-16.545c-4.142,0-7.5,3.358-7.5,7.5s3.358,7.5,7.5,7.5h25.126
	C389.474,332.517,386.722,338.333,385.497,344.691z M480.734,248.499h-48.379c-0.285,0-0.516-0.231-0.516-0.516v-32.581h37.863
	L480.734,248.499z M424.339,376.757c-13.545,0-24.564-11.02-24.564-24.564c0-13.493,10.937-24.477,24.411-24.561h0.154
	c0.017,0,0.034-0.002,0.052-0.003c13.521,0.028,24.513,11.036,24.513,24.563C448.903,365.736,437.884,376.757,424.339,376.757z
	 M497,288.583h-8.532c-4.142,0-7.5,3.358-7.5,7.5s3.358,7.5,7.5,7.5H497v32.581c0,0.285-0.231,0.516-0.516,0.516h-35.752
	c-6.045-14.127-20.08-24.052-36.393-24.052c-0.052,0-0.102,0.004-0.154,0.004h-24.41V183.857v-0.004
	c0-0.285,0.231-0.516,0.516-0.516h58.723l5.688,17.064h-40.363c-4.142,0-7.5,3.358-7.5,7.5v40.081
	c0,8.556,6.96,15.516,15.516,15.516h61.022l1.124,1.124c1.611,1.612,2.499,3.754,2.499,6.033L497,288.583L497,288.583z" />
	<path d="M39.564,295.566h320.645c4.142,0,7.5-3.358,7.5-7.5s-3.358-7.5-7.5-7.5H39.564c-4.142,0-7.5,3.358-7.5,7.5
	S35.422,295.566,39.564,295.566z" />
	<g>
	</g>
	<g>
	</g>
	<g>
	</g>
	<g>
	</g>
	<g>
	</g>
	<g>
	</g>
	<g>
	</g>
	<g>
	</g>
	<g>
	</g>
	<g>
	</g>
	<g>
	</g>
	<g>
	</g>
	<g>
	</g>
	<g>
	</g>
	<g>
	</g>
</svg>